//
// Created by Domagoj on 03/11/2020.
//

#ifndef NIBBLE_NEW_LOOPMELODY_H
#define NIBBLE_NEW_LOOPMELODY_H

#include "Pitches.h"
#include "Note.h"

Note loopMelody[] = {

		{NOTE_E5, 250},  {NOTE_B4,125},  {NOTE_C5,125}, {NOTE_D5, 250}, {NOTE_C5, 125}, {NOTE_B4, 125},
		{NOTE_A4, 250}, {NOTE_A4, 125}, {NOTE_C5, 125}, {NOTE_E5, 250}, {NOTE_D5, 125}, {NOTE_C5, 125},
		{NOTE_B4, 375}, {NOTE_C5, 125}, {NOTE_D5, 250}, {NOTE_E5, 250},
		{NOTE_C5, 250}, {NOTE_A4, 250}, {NOTE_A4, 125}, {NOTE_A4, 250}, {NOTE_B4, 125}, {NOTE_C5, 125},

		{NOTE_D5, 375}, {NOTE_F5, 125}, {NOTE_A5, 250}, {NOTE_G5, 125}, {NOTE_F5, 125},
		{NOTE_E5, 375}, {NOTE_C5, 125}, {NOTE_E5, 250}, {NOTE_D5, 125}, {NOTE_C5, 125},
		{NOTE_B4, 250}, {NOTE_B4, 125}, {NOTE_C5, 125}, {NOTE_D5, 250}, {NOTE_E5, 250},
		{NOTE_C5, 250}, {NOTE_A4, 250}, {NOTE_A4, 250}, {0, 250},

		{NOTE_E5, 250}, {NOTE_B4, 125}, {NOTE_C5, 125}, {NOTE_D5, 250}, {NOTE_C5, 125}, {NOTE_B4, 125},
		{NOTE_A4, 250}, {NOTE_A4, 125}, {NOTE_C5, 125}, {NOTE_E5, 250}, {NOTE_D5, 125}, {NOTE_C5, 125},
		{NOTE_B4, 375}, {NOTE_C5, 125}, {NOTE_D5, 250}, {NOTE_E5, 250},
		{NOTE_C5, 250}, {NOTE_A4, 250}, {NOTE_A4, 125}, {NOTE_A4, 250}, {NOTE_B4, 125}, {NOTE_C5, 125},

		{NOTE_D5, 375}, {NOTE_F5, 125}, {NOTE_A5, 250}, {NOTE_G5, 125}, {NOTE_F5, 125},
		{NOTE_E5, 375}, {NOTE_C5, 125}, {NOTE_E5, 250}, {NOTE_D5, 125}, {NOTE_C5, 125},
		{NOTE_B4, 250}, {NOTE_B4, 125}, {NOTE_C5, 125}, {NOTE_D5, 250}, {NOTE_E5, 250},
		{NOTE_C5, 250}, {NOTE_A4, 250}, {NOTE_A4, 250}, {0, 250}
};

#endif //NIBBLE_NEW_LOOPMELODY_H
