//
// Created by Domagoj on 28/10/2020.
//

#ifndef NIBBLE_NEW_MELODY_H
#define NIBBLE_NEW_MELODY_H

// notes in the melody:
int startUpMelody[] = {

		NOTE_C4, NOTE_G3, NOTE_G3, NOTE_A3, NOTE_G3, 0, NOTE_B3, NOTE_C4

};

// note durations: 4 = quarter note, 8 = eighth note, etc.:
int startUpNoteDurations[] = {

		4, 8, 8, 4, 4, 4, 4, 4

};

int potcMelody[] = {
		//Note of the song, 0 is a rest/pulse
		NOTE_E4, NOTE_G4, NOTE_A4, NOTE_A4, 0,
		NOTE_A4, NOTE_B4, NOTE_C5, NOTE_C5, 0,
		NOTE_C5, NOTE_D5, NOTE_B4, NOTE_B4, 0,
		NOTE_A4, NOTE_G4, NOTE_A4, 0,

		NOTE_E4, NOTE_G4, NOTE_A4, NOTE_A4, 0,
		NOTE_A4, NOTE_B4, NOTE_C5, NOTE_C5, 0,
		NOTE_C5, NOTE_D5, NOTE_B4, NOTE_B4, 0,
		NOTE_A4, NOTE_G4, NOTE_A4, 0,

		NOTE_E4, NOTE_G4, NOTE_A4, NOTE_A4, 0,
		NOTE_A4, NOTE_C5, NOTE_D5, NOTE_D5, 0,
		NOTE_D5, NOTE_E5, NOTE_F5, NOTE_F5, 0,
		NOTE_E5, NOTE_D5, NOTE_E5, NOTE_A4, 0,

		NOTE_A4, NOTE_B4, NOTE_C5, NOTE_C5, 0,
		NOTE_D5, NOTE_E5, NOTE_A4, 0,
		NOTE_A4, NOTE_C5, NOTE_B4, NOTE_B4, 0,
		NOTE_C5, NOTE_A4, NOTE_B4, 0,

		NOTE_A4, NOTE_A4,
		//Repeat of first part
		NOTE_A4, NOTE_B4, NOTE_C5, NOTE_C5, 0,
		NOTE_C5, NOTE_D5, NOTE_B4, NOTE_B4, 0,
		NOTE_A4, NOTE_G4, NOTE_A4, 0,

		NOTE_E4, NOTE_G4, NOTE_A4, NOTE_A4, 0,
		NOTE_A4, NOTE_B4, NOTE_C5, NOTE_C5, 0,
		NOTE_C5, NOTE_D5, NOTE_B4, NOTE_B4, 0,
		NOTE_A4, NOTE_G4, NOTE_A4, 0,

		NOTE_E4, NOTE_G4, NOTE_A4, NOTE_A4, 0,
		NOTE_A4, NOTE_C5, NOTE_D5, NOTE_D5, 0,
		NOTE_D5, NOTE_E5, NOTE_F5, NOTE_F5, 0,
		NOTE_E5, NOTE_D5, NOTE_E5, NOTE_A4, 0,

		NOTE_A4, NOTE_B4, NOTE_C5, NOTE_C5, 0,
		NOTE_D5, NOTE_E5, NOTE_A4, 0,
		NOTE_A4, NOTE_C5, NOTE_B4, NOTE_B4, 0,
		NOTE_C5, NOTE_A4, NOTE_B4, 0,
		//End of Repeat

		NOTE_E5, 0, 0, NOTE_F5, 0, 0,
		NOTE_E5, NOTE_E5, 0, NOTE_G5, 0, NOTE_E5, NOTE_D5, 0, 0,
		NOTE_D5, 0, 0, NOTE_C5, 0, 0,
		NOTE_B4, NOTE_C5, 0, NOTE_B4, 0, NOTE_A4,

		NOTE_E5, 0, 0, NOTE_F5, 0, 0,
		NOTE_E5, NOTE_E5, 0, NOTE_G5, 0, NOTE_E5, NOTE_D5, 0, 0,
		NOTE_D5, 0, 0, NOTE_C5, 0, 0,
		NOTE_B4, NOTE_C5, 0, NOTE_B4, 0, NOTE_A4
};

int potcNoteDuration[] = {
		//duration of each note (in ms) Quarter Note is set to 250 ms
		125, 125, 250, 125, 125,
		125, 125, 250, 125, 125,
		125, 125, 250, 125, 125,
		125, 125, 375, 125,

		125, 125, 250, 125, 125,
		125, 125, 250, 125, 125,
		125, 125, 250, 125, 125,
		125, 125, 375, 125,

		125, 125, 250, 125, 125,
		125, 125, 250, 125, 125,
		125, 125, 250, 125, 125,
		125, 125, 125, 250, 125,

		125, 125, 250, 125, 125,
		250, 125, 250, 125,
		125, 125, 250, 125, 125,
		125, 125, 375, 375,

		250, 125,
		//Rpeat of First Part
		125, 125, 250, 125, 125,
		125, 125, 250, 125, 125,
		125, 125, 375, 125,

		125, 125, 250, 125, 125,
		125, 125, 250, 125, 125,
		125, 125, 250, 125, 125,
		125, 125, 375, 125,

		125, 125, 250, 125, 125,
		125, 125, 250, 125, 125,
		125, 125, 250, 125, 125,
		125, 125, 125, 250, 125,

		125, 125, 250, 125, 125,
		250, 125, 250, 125,
		125, 125, 250, 125, 125,
		125, 125, 375, 375,
		//End of Repeat

		250, 125, 375, 250, 125, 375,
		125, 125, 125, 125, 125, 125, 125, 125, 375,
		250, 125, 375, 250, 125, 375,
		125, 125, 125, 125, 125, 500,

		250, 125, 375, 250, 125, 375,
		125, 125, 125, 125, 125, 125, 125, 125, 375,
		250, 125, 375, 250, 125, 375,
		125, 125, 125, 125, 125, 500
};

#endif //NIBBLE_NEW_MELODY_H
